<svg width="25" height="25" viewBox="0 0 25 25" fill="none" xmlns="http://www.w3.org/2000/svg">
<path d="M12.4537 1.97101C11.0956 2.03495 9.79745 2.34663 8.5592 2.90607C7.32096 3.46552 6.22251 4.22875 5.26387 5.19579C4.30523 6.16282 3.57027 7.26971 3.059 8.51646C2.70749 9.36362 2.45186 10.2507 2.29208 11.1778C2.24415 11.5934 2.22018 12.1009 2.22018 12.7003C2.22018 13.2997 2.24415 13.8072 2.29208 14.2228C2.67554 16.6044 3.70208 18.6343 5.37172 20.3127C7.04135 21.991 9.10643 23.006 11.5669 23.3576C11.9184 23.4216 12.3938 23.4495 12.9929 23.4415C13.5921 23.4335 14.0754 23.4056 14.4429 23.3576C15.0979 23.2457 15.741 23.0899 16.3721 22.8901C17.0032 22.6903 17.3867 22.5065 17.5225 22.3386C17.6583 22.1708 17.7102 21.979 17.6783 21.7632C17.6463 21.5474 17.5345 21.3756 17.3428 21.2477C17.2149 21.1678 17.0791 21.1318 16.9353 21.1398C16.7915 21.1478 16.5998 21.1998 16.3601 21.2957C15.753 21.5354 15.1539 21.7073 14.5627 21.8112C13.9715 21.9151 13.3284 21.955 12.6334 21.931C11.9384 21.9071 11.2953 21.8232 10.7042 21.6793C10.113 21.5354 9.48988 21.3037 8.83481 20.984C7.98801 20.5684 7.21311 20.017 6.51011 19.3297C5.8071 18.6423 5.22393 17.8671 4.76058 17.004C4.20138 15.933 3.86585 14.7942 3.75401 13.5874C3.64217 12.3806 3.75801 11.1978 4.10152 10.0389C4.44503 8.8801 5.00025 7.82915 5.76716 6.8861C5.92693 6.69429 6.15062 6.45053 6.43821 6.15483C6.7258 5.85912 6.96546 5.63135 7.15719 5.47151C8.19572 4.65632 9.35008 4.0849 10.6203 3.75722C11.8905 3.42955 13.1727 3.37361 14.4668 3.58939C15.761 3.80518 16.9593 4.27271 18.0617 4.99199C18.5411 5.31167 18.9964 5.69529 19.4278 6.14284C20.3705 7.05393 21.0815 8.11686 21.5608 9.33165C21.9442 10.3067 22.1479 11.3456 22.1719 12.4485C22.1959 13.5514 22.0481 14.6064 21.7285 15.6134C21.5847 16.029 21.429 16.4046 21.2612 16.7402C21.0934 17.0759 20.8658 17.4675 20.5782 17.9151C20.4024 18.1868 20.2946 18.3586 20.2546 18.4306C20.2147 18.5025 20.1947 18.5904 20.1947 18.6943C20.1947 18.7982 20.2027 18.8741 20.2187 18.9221C20.2347 18.97 20.2666 19.0339 20.3145 19.1139C20.4743 19.3376 20.682 19.4495 20.9377 19.4495C21.0974 19.4495 21.2332 19.4096 21.3451 19.3297C21.4569 19.2497 21.5927 19.0899 21.7525 18.8501C22.6153 17.6034 23.1905 16.2527 23.4781 14.7982C23.558 14.3826 23.6099 14.0349 23.6338 13.7552C23.6578 13.4755 23.6698 13.1039 23.6698 12.6403C23.6698 12.0329 23.6338 11.4855 23.5619 10.998C23.49 10.5105 23.3582 9.98699 23.1665 9.42755C22.8789 8.50048 22.4875 7.65732 21.9922 6.89808C21.4969 6.13884 20.8897 5.42356 20.1707 4.75223C19.3399 4.00098 18.4053 3.38959 17.3667 2.91806C16.3282 2.44654 15.2577 2.14683 14.1553 2.01896C13.9156 2.00298 13.62 1.98699 13.2685 1.97101C12.917 1.95503 12.6454 1.95503 12.4537 1.97101ZM12.5735 10.2667C12.3179 10.3307 12.0942 10.4425 11.9025 10.6024C11.8066 10.6823 11.3273 11.1938 10.4645 12.1368C9.79345 12.8401 9.37804 13.2957 9.21827 13.5035C9.0585 13.7113 8.97861 13.8791 8.97861 14.007C8.97861 14.1348 9.03053 14.2707 9.13439 14.4146C9.23824 14.5584 9.35408 14.6543 9.48189 14.7023C9.60971 14.7502 9.74153 14.7582 9.87734 14.7263C10.0131 14.6943 10.125 14.6383 10.2129 14.5584C10.3007 14.4785 10.7681 13.991 11.6149 13.0959L11.7347 12.976C12.198 12.4645 12.4936 12.1448 12.6214 12.017C12.8132 11.8411 12.941 11.7492 13.0049 11.7412C13.0688 11.7332 13.1487 11.7772 13.2446 11.8731L14.5867 13.3117C15.3855 14.1748 15.8329 14.6304 15.9288 14.6783C16.0566 14.7422 16.2084 14.7582 16.3841 14.7263C16.5599 14.6943 16.6957 14.6224 16.7915 14.5105C16.8874 14.3986 16.9473 14.2667 16.9713 14.1149C16.9952 13.963 16.9753 13.8232 16.9114 13.6953C16.8634 13.5994 16.3921 13.0679 15.4974 12.1009C14.6026 11.1338 14.0914 10.6064 13.9635 10.5185C13.8357 10.4306 13.7079 10.3626 13.5801 10.3147C13.4523 10.2667 13.2805 10.2387 13.0648 10.2308C12.8491 10.2228 12.6854 10.2347 12.5735 10.2667Z" fill="#7000FE"/>
</svg>
